<?xml version="1.0" encoding="UTF-8" standalone="no"?>
<!-- Created with Inkscape (http://www.inkscape.org/) -->

<svg
   xmlns:dc="http://purl.org/dc/elements/1.1/"
   xmlns:cc="http://creativecommons.org/ns#"
   xmlns:rdf="http://www.w3.org/1999/02/22-rdf-syntax-ns#"
   xmlns:svg="http://www.w3.org/2000/svg"
   xmlns="http://www.w3.org/2000/svg"
   xmlns:sodipodi="http://sodipodi.sourceforge.net/DTD/sodipodi-0.dtd"
   xmlns:inkscape="http://www.inkscape.org/namespaces/inkscape"
   width="198.71384mm"
   height="23.298058mm"
   viewBox="0 0 198.71383 23.298058"
   version="1.1"
   id="svg8"
   inkscape:version="0.92.5 (2060ec1f9f, 2020-04-08)"
   sodipodi:docname="o-spacetrip-logo.svg">
  <defs
     id="defs2" />
  <sodipodi:namedview
     id="base"
     pagecolor="#ffffff"
     bordercolor="#666666"
     borderopacity="1.0"
     inkscape:pageopacity="0.0"
     inkscape:pageshadow="2"
     inkscape:zoom="1.4"
     inkscape:cx="512.65552"
     inkscape:cy="5.1856046"
     inkscape:document-units="mm"
     inkscape:current-layer="layer1"
     showgrid="false"
     inkscape:window-width="1920"
     inkscape:window-height="966"
     inkscape:window-x="1366"
     inkscape:window-y="27"
     inkscape:window-maximized="1"
     fit-margin-top="0"
     fit-margin-left="0"
     fit-margin-right="-0.1"
     fit-margin-bottom="0" />
  <metadata
     id="metadata5">
    <rdf:RDF>
      <cc:Work
         rdf:about="">
        <dc:format>image/svg+xml</dc:format>
        <dc:type
           rdf:resource="http://purl.org/dc/dcmitype/StillImage" />
        <dc:title></dc:title>
      </cc:Work>
    </rdf:RDF>
  </metadata>
  <g
     inkscape:label="Layer 1"
     inkscape:groupmode="layer"
     id="layer1"
     transform="translate(-6.0872036,-87.590342)">
    <g
       aria-label="SPACETRIP"
       style="font-style:normal;font-weight:normal;font-size:29.04995155px;line-height:1.25;font-family:sans-serif;letter-spacing:0px;word-spacing:0px;fill:#ffffff;fill-opacity:1;stroke:none;stroke-width:0.7262488"
       id="text3719">
      <path
         d="m 40.739916,87.706542 q 0.697199,-0.1162 1.597748,-0.1162 2.498295,0 4.938491,0.929599 2.469246,0.929598 3.950794,2.440196 l 0.464799,0.493849 -0.929598,0.842449 q -0.20335,0.174299 -0.5229,0.435749 -0.290499,0.261449 -0.522899,0.464799 -0.203349,0.1743 -0.290499,0.26145 l -0.37765,0.319549 -0.639099,-0.551949 q -1.394397,-1.220098 -3.224544,-1.830147 -1.045798,-0.348599 -2.614496,-0.348599 -1.365348,0 -2.062546,0.174299 -0.668149,0.1743 -1.249148,0.668149 -0.871499,0.697199 -0.871499,1.742997 0,1.365348 1.307248,2.178747 1.307248,0.784348 4.183193,1.191048 4.502742,0.668149 6.478139,2.469246 2.004447,1.830147 2.004447,4.822287 0,2.1497 -0.929599,3.57315 -0.551949,0.8715 -1.626797,1.59775 -1.045798,0.72624 -2.294946,1.07484 -1.278198,0.3486 -3.631244,0.3486 -1.713947,0 -2.759745,-0.20335 -0.49385,-0.1162 -1.510598,-0.43575 -1.016748,-0.34859 -1.394398,-0.55194 -1.597747,-0.78435 -2.614495,-1.9754 -0.37765,-0.43575 -0.755299,-1.0458 -0.377649,-0.61005 -0.377649,-0.7553 0,-0.14525 0.784348,-0.66815 0.784349,-0.55195 1.568698,-1.01675 l 0.784348,-0.46479 q 0.08715,0 0.4067,0.55194 0.290499,0.581 1.103898,1.36535 0.842449,0.7553 1.539647,1.1039 1.539648,0.78435 3.224545,0.78435 0.08715,0 0.2905,0 0.203349,-0.0291 0.319549,-0.0291 1.191048,-0.0581 1.713947,-0.20335 0.551949,-0.14525 1.161998,-0.55195 1.249148,-0.84245 1.249148,-2.35305 0,-0.75529 -0.406699,-1.33629 -0.610049,-0.8715 -1.772047,-1.3363 -1.132948,-0.4648 -3.660294,-0.90055 -3.282645,-0.55195 -4.909442,-1.423447 -2.411146,-1.249148 -3.137395,-3.544094 -0.261449,-0.784349 -0.261449,-1.975397 0,-0.871499 0.174299,-1.481548 0.49385,-1.888246 2.091597,-3.137394 1.626797,-1.249148 4.008893,-1.597748 z"
         style="font-style:normal;font-variant:normal;font-weight:normal;font-stretch:normal;font-family:'Lost In Space';-inkscape-font-specification:'Lost In Space';fill:#ffffff;stroke-width:0.7262488"
         id="path4006"
         inkscape:connector-curvature="0" />
      <path
         d="m 54.85819,90.843937 v -2.904995 h 5.228991 q 5.170892,0 6.24574,0.261449 2.062546,0.49385 3.224544,1.684898 1.191049,1.161998 1.597748,3.137394 0.14525,0.813399 0.14525,1.684898 0,1.481547 -0.2905,2.469245 -0.929598,3.340744 -4.560842,4.386544 -0.755299,0.20335 -4.270343,0.2905 l -3.515044,0.0581 v 8.71498 H 54.85819 V 98.977923 h 4.415593 q 3.485994,0 4.706092,-0.116199 1.220098,-0.1162 1.859197,-0.49385 1.568697,-0.900548 1.597747,-3.456944 v -0.232399 q 0,-0.987699 -0.20335,-1.568698 -0.203349,-0.580999 -0.784348,-1.161998 -0.726249,-0.726249 -1.568698,-0.842448 -0.813398,-0.14525 -5.054691,-0.20335 z"
         style="font-style:normal;font-variant:normal;font-weight:normal;font-stretch:normal;font-family:'Lost In Space';-inkscape-font-specification:'Lost In Space';fill:#ffffff;stroke-width:0.7262488"
         id="path4008"
         inkscape:connector-curvature="0" />
      <path
         d="m 83.18189,88.084192 q 0.1162,-0.14525 2.062547,-0.14525 1.946347,0 2.062546,0.14525 0.1162,0.174299 0.580999,1.307247 0.49385,1.220098 2.585446,6.47814 2.120647,5.228991 3.979844,9.964131 1.888246,4.70609 1.888246,4.73514 0,0.0581 -2.062546,0.0581 h -2.091597 l -1.510597,-3.92174 q -2.788796,-7.146288 -3.456944,-8.860235 -1.946347,-4.967541 -2.033497,-4.967541 -0.02905,0 -3.573144,8.860236 l -3.544094,8.88928 h -2.091597 q -2.033496,-0.029 -2.033496,-0.1743 0.1162,-0.31955 3.369794,-8.19208 5.722841,-13.943979 5.86809,-14.176378 z"
         style="font-style:normal;font-variant:normal;font-weight:normal;font-stretch:normal;font-family:'Lost In Space';-inkscape-font-specification:'Lost In Space';fill:#ffffff;stroke-width:0.7262488"
         id="path4010"
         inkscape:connector-curvature="0" />
      <path
         d="m 107.46764,87.793692 q 0.84245,-0.20335 2.14969,-0.20335 1.8592,0 3.486,0.4067 2.73069,0.726249 4.32844,2.062546 0.581,0.4648 1.24915,1.278198 0.6972,0.784349 0.6972,0.987699 0,0.08715 -1.162,1.074848 -1.13295,0.987698 -1.42345,1.161998 h -0.029 q -0.14525,0 -0.61005,-0.639099 -1.01675,-1.481548 -3.02119,-2.440196 -1.48155,-0.726249 -3.1374,-0.726249 h -0.55195 q -0.90054,0.02905 -1.27819,0.1162 -0.3486,0.0581 -1.01675,0.406699 -1.01675,0.493849 -1.743,1.278198 -2.44019,2.469246 -2.44019,6.652439 0,4.212247 2.49829,6.710537 1.8592,1.8592 4.47369,1.8592 1.2782,0 2.75975,-0.49385 1.13295,-0.4067 2.0916,-1.162 0.98769,-0.78435 1.51059,-1.6849 0.31955,-0.52289 0.4067,-0.52289 0.1162,0 1.3944,1.10389 1.2782,1.1039 1.2782,1.19105 0,0.20335 -0.55195,0.9296 -0.55195,0.72625 -0.9877,1.1039 -3.02119,2.61449 -7.90159,2.61449 -4.70609,0 -7.78538,-3.16644 -2.2078,-2.2659 -2.992148,-5.63569 -0.2324,-1.01675 -0.2324,-2.904997 0,-1.742997 0.2324,-2.904995 0.261449,-1.161998 0.958648,-2.556396 2.35305,-4.793242 7.34964,-5.89714 z"
         style="font-style:normal;font-variant:normal;font-weight:normal;font-stretch:normal;font-family:'Lost In Space';-inkscape-font-specification:'Lost In Space';fill:#ffffff;stroke-width:0.7262488"
         id="path4012"
         inkscape:connector-curvature="0" />
      <path
         d="m 121.99259,98.164525 q 0.0581,-0.0581 4.58989,-0.0581 h 3.16645 l 7.66919,0.02905 v 1.365348 q 0,1.365347 -0.0581,1.423447 -0.029,0.029 -5.83904,0.0871 l -5.80999,0.029 v 6.65244 l 6.36194,0.029 6.36194,0.0581 0.0291,1.53965 0.0581,1.53964 H 121.9055 v -6.30384 q 0,-6.303835 0.0872,-6.390985 z m 0,-9.993184 q 0.029,-0.08715 8.04684,-0.08715 h 7.95969 v 3.021195 h -16.09368 v -1.423448 q 0,-1.452498 0.0872,-1.510598 z"
         style="font-style:normal;font-variant:normal;font-weight:normal;font-stretch:normal;font-family:'Lost In Space';-inkscape-font-specification:'Lost In Space';fill:#ffffff;stroke-width:0.7262488"
         id="path4014"
         inkscape:connector-curvature="0" />
      <path
         d="m 141.13648,90.989187 v -3.050245 h 18.62102 v 3.050245 h -7.32059 l -0.0872,0.377649 q -0.0581,0.3486 -0.0581,3.021195 0,2.120647 0.029,7.436789 0.0581,5.31614 0.0581,6.79769 0,1.56869 -0.029,1.65584 -0.0581,0.14525 -0.37765,0.1743 -0.2905,0.029 -1.59775,0.029 h -1.88824 V 90.989187 Z"
         style="font-style:normal;font-variant:normal;font-weight:normal;font-stretch:normal;font-family:'Lost In Space';-inkscape-font-specification:'Lost In Space';fill:#ffffff;stroke-width:0.7262488"
         id="path4016"
         inkscape:connector-curvature="0" />
      <path
         d="m 162.2848,90.843937 v -2.904995 q 1.88825,0 5.60664,0.02905 3.74744,0.02905 5.60664,0.02905 l 0.9877,0.377649 q 3.36979,1.191048 4.06699,4.270343 0.1743,0.784349 0.1743,2.178746 0,1.045799 -0.1162,1.626798 -0.14525,0.813398 -0.6391,1.713947 -0.4648,0.871498 -1.01675,1.365348 -0.46479,0.435749 -1.27819,0.900547 -0.8134,0.43575 -1.13295,0.43575 -0.2905,0 -0.2905,0.1162 0,0.0871 0.95865,1.8592 0.95865,1.74299 2.20779,3.97984 1.2782,2.2078 2.00445,3.36979 l 0.2324,0.43575 h -4.38654 q -3.5441,-6.15859 -5.28709,-9.26693 h -3.8927 v 9.26693 h -3.80554 q 0,-2.03349 0.0291,-6.10049 0.029,-4.09604 0.029,-6.129536 l 5.14184,-0.0581 q 3.80554,-0.0581 4.53179,-0.08715 0.7553,-0.0581 1.19105,-0.26145 1.71395,-0.871498 1.71395,-3.253594 v -0.3486 q -0.0871,-1.365348 -0.78435,-2.236846 -0.66815,-0.900549 -1.8592,-1.161998 -0.66815,-0.14525 -5.31614,-0.14525 z"
         style="font-style:normal;font-variant:normal;font-weight:normal;font-stretch:normal;font-family:'Lost In Space';-inkscape-font-specification:'Lost In Space';fill:#ffffff;stroke-width:0.7262488"
         id="path4018"
         inkscape:connector-curvature="0" />
      <path
         d="M 182.2421,110.74315 V 87.938942 h 3.80554 v 22.804208 z"
         style="font-style:normal;font-variant:normal;font-weight:normal;font-stretch:normal;font-family:'Lost In Space';-inkscape-font-specification:'Lost In Space';fill:#ffffff;stroke-width:0.7262488"
         id="path4020"
         inkscape:connector-curvature="0" />
      <path
         d="m 188.45877,90.843937 v -2.904995 h 5.22899 q 5.17089,0 6.24574,0.261449 2.06255,0.49385 3.22455,1.684898 1.19105,1.161998 1.59774,3.137394 0.14525,0.813399 0.14525,1.684898 0,1.481547 -0.29049,2.469245 -0.9296,3.340744 -4.56085,4.386544 -0.7553,0.20335 -4.27034,0.2905 l -3.51504,0.0581 v 8.71498 h -3.80555 V 98.977923 h 4.41559 q 3.486,0 4.7061,-0.116199 1.22009,-0.1162 1.85919,-0.49385 1.5687,-0.900548 1.59775,-3.456944 v -0.232399 q 0,-0.987699 -0.20335,-1.568698 -0.20335,-0.580999 -0.78435,-1.161998 -0.72625,-0.726249 -1.56869,-0.842448 -0.8134,-0.14525 -5.0547,-0.20335 z"
         style="font-style:normal;font-variant:normal;font-weight:normal;font-stretch:normal;font-family:'Lost In Space';-inkscape-font-specification:'Lost In Space';fill:#ffffff;stroke-width:0.7262488"
         id="path4022"
         inkscape:connector-curvature="0" />
    </g>
    <g
       aria-label="O"
       transform="rotate(90)"
       style="font-style:normal;font-weight:normal;font-size:29.04995155px;line-height:1.25;font-family:sans-serif;letter-spacing:0px;word-spacing:0px;fill:#ffffff;fill-opacity:1;stroke:none;stroke-width:0.7262488"
       id="text3719-9">
      <path
         d="m 101.45025,-24.853472 q -0.8715,-0.26145 -2.294945,-0.26145 -0.755299,0 -1.016749,0.0581 -2.382096,0.435749 -4.037943,1.975397 -0.522899,0.493849 -1.074848,1.249148 -0.551949,0.726248 -0.551949,0.958648 0,0.0581 0.145249,0 0.1743,-0.08715 0.43575,-0.26145 0.668149,-0.493849 1.597747,-0.813398 0.697199,-0.26145 1.074848,-0.31955 0.37765,-0.0581 1.539648,-0.0581 1.597747,0 2.527345,0.3486 3.079297,1.161998 4.444647,3.950793 0.84244,1.742997 0.84244,3.602194 0,0.929599 -0.23239,1.801097 -0.0291,0.14525 -0.0581,0.2905 -0.029,0.1162 -0.029,0.203349 0,0.0581 0.029,0.0581 0.11619,0 0.72624,-0.842448 0.61005,-0.871499 0.84245,-1.365348 0.66815,-1.452498 0.66815,-3.137395 0,-2.527346 -1.53965,-4.589892 -1.51059,-2.091597 -4.03794,-2.846895 z m -3.950793,-3.631244 q 0.697199,-0.1162 1.626798,-0.1162 2.353045,0 4.154145,0.697199 1.80109,0.668149 3.48599,2.207796 1.71395,1.539648 2.64355,3.340745 1.07485,2.149696 1.07485,5.112791 0,2.004447 -0.55195,3.631244 -1.13295,3.398844 -4.067,5.4613908 -2.93404,2.0625466 -6.536236,2.0625466 -1.336298,0 -2.382096,-0.2323996 -3.137395,-0.6681489 -5.374241,-2.9049952 -3.166445,-3.1083446 -3.369794,-7.4948876 0,-0.14525 -0.02905,-0.377649 0,-0.26145 0,-0.37765 0,-3.050245 1.510597,-5.60664 0.551949,-0.900549 1.481548,-1.917297 0.958648,-1.045798 1.713947,-1.568697 2.178746,-1.481548 4.618942,-1.917297 z"
         style="font-style:normal;font-variant:normal;font-weight:normal;font-stretch:normal;font-family:'Lost In Space';-inkscape-font-specification:'Lost In Space';fill:#ffffff;stroke-width:0.7262488"
         id="path4025"
         inkscape:connector-curvature="0" />
    </g>
  </g>
</svg>
